<mxfile host="app.diagrams.net" agent="Mozilla/5.0 (Windows NT 10.0; Win64; x64) AppleWebKit/537.36 (KHTML, like Gecko) Chrome/141.0.0.0 Safari/537.36 Edg/141.0.0.0" version="28.2.5">
  <diagram name="Página-1" id="S7YTJ9rorQyaULHSOZtd">
    <mxGraphModel dx="1418" dy="786" grid="1" gridSize="10" guides="1" tooltips="1" connect="1" arrows="1" fold="1" page="1" pageScale="1" pageWidth="827" pageHeight="1169" background="#ffffff" math="0" shadow="0">
      <root>
        <mxCell id="0" />
        <mxCell id="1" parent="0" />
        <mxCell id="sZH2aLDt-uR4K2a4QQyU-22" value="" style="edgeStyle=orthogonalEdgeStyle;rounded=0;orthogonalLoop=1;jettySize=auto;html=1;" edge="1" parent="1" source="uxtN9aGpHG5_g07FjMfj-32" target="sZH2aLDt-uR4K2a4QQyU-17">
          <mxGeometry relative="1" as="geometry" />
        </mxCell>
        <mxCell id="uxtN9aGpHG5_g07FjMfj-32" value="Início" style="ellipse;whiteSpace=wrap;html=1;fillColor=#f8cecc;strokeColor=#b85450;" parent="1" vertex="1">
          <mxGeometry x="354" y="40" width="120" height="80" as="geometry" />
        </mxCell>
        <mxCell id="sZH2aLDt-uR4K2a4QQyU-24" value="" style="edgeStyle=orthogonalEdgeStyle;rounded=0;orthogonalLoop=1;jettySize=auto;html=1;" edge="1" parent="1" source="sZH2aLDt-uR4K2a4QQyU-1" target="sZH2aLDt-uR4K2a4QQyU-18">
          <mxGeometry relative="1" as="geometry" />
        </mxCell>
        <mxCell id="sZH2aLDt-uR4K2a4QQyU-1" value="Ler num" style="shape=parallelogram;perimeter=parallelogramPerimeter;whiteSpace=wrap;html=1;fixedSize=1;fillColor=#dae8fc;strokeColor=#6c8ebf;" vertex="1" parent="1">
          <mxGeometry x="354" y="280" width="120" height="60" as="geometry" />
        </mxCell>
        <mxCell id="sZH2aLDt-uR4K2a4QQyU-23" value="" style="edgeStyle=orthogonalEdgeStyle;rounded=0;orthogonalLoop=1;jettySize=auto;html=1;" edge="1" parent="1" source="sZH2aLDt-uR4K2a4QQyU-17" target="sZH2aLDt-uR4K2a4QQyU-1">
          <mxGeometry relative="1" as="geometry" />
        </mxCell>
        <mxCell id="sZH2aLDt-uR4K2a4QQyU-17" value="Cont = 0" style="rounded=0;whiteSpace=wrap;html=1;fillColor=#ffe6cc;strokeColor=#d79b00;" vertex="1" parent="1">
          <mxGeometry x="354" y="170" width="120" height="60" as="geometry" />
        </mxCell>
        <mxCell id="sZH2aLDt-uR4K2a4QQyU-25" value="" style="edgeStyle=orthogonalEdgeStyle;rounded=0;orthogonalLoop=1;jettySize=auto;html=1;" edge="1" parent="1" source="sZH2aLDt-uR4K2a4QQyU-18" target="sZH2aLDt-uR4K2a4QQyU-19">
          <mxGeometry relative="1" as="geometry" />
        </mxCell>
        <mxCell id="sZH2aLDt-uR4K2a4QQyU-18" value="++ Cont" style="rounded=0;whiteSpace=wrap;html=1;fillColor=#ffe6cc;strokeColor=#d79b00;" vertex="1" parent="1">
          <mxGeometry x="354" y="390" width="120" height="60" as="geometry" />
        </mxCell>
        <mxCell id="sZH2aLDt-uR4K2a4QQyU-26" value="" style="edgeStyle=orthogonalEdgeStyle;rounded=0;orthogonalLoop=1;jettySize=auto;html=1;" edge="1" parent="1" source="sZH2aLDt-uR4K2a4QQyU-19" target="sZH2aLDt-uR4K2a4QQyU-20">
          <mxGeometry relative="1" as="geometry" />
        </mxCell>
        <mxCell id="sZH2aLDt-uR4K2a4QQyU-19" value="Escrever num, &quot; x &quot;, Cont, &quot; = &quot;, num*Cont&amp;nbsp;" style="shape=parallelogram;perimeter=parallelogramPerimeter;whiteSpace=wrap;html=1;fixedSize=1;fillColor=#dae8fc;strokeColor=#6c8ebf;" vertex="1" parent="1">
          <mxGeometry x="326" y="500" width="176" height="60" as="geometry" />
        </mxCell>
        <mxCell id="sZH2aLDt-uR4K2a4QQyU-27" value="" style="edgeStyle=orthogonalEdgeStyle;rounded=0;orthogonalLoop=1;jettySize=auto;html=1;" edge="1" parent="1" source="sZH2aLDt-uR4K2a4QQyU-20" target="sZH2aLDt-uR4K2a4QQyU-21">
          <mxGeometry relative="1" as="geometry" />
        </mxCell>
        <mxCell id="sZH2aLDt-uR4K2a4QQyU-30" value="Sim" style="edgeLabel;html=1;align=center;verticalAlign=middle;resizable=0;points=[];" vertex="1" connectable="0" parent="sZH2aLDt-uR4K2a4QQyU-27">
          <mxGeometry x="-0.32" y="-1" relative="1" as="geometry">
            <mxPoint as="offset" />
          </mxGeometry>
        </mxCell>
        <mxCell id="sZH2aLDt-uR4K2a4QQyU-28" style="edgeStyle=orthogonalEdgeStyle;rounded=0;orthogonalLoop=1;jettySize=auto;html=1;" edge="1" parent="1" source="sZH2aLDt-uR4K2a4QQyU-20" target="sZH2aLDt-uR4K2a4QQyU-18">
          <mxGeometry relative="1" as="geometry">
            <Array as="points">
              <mxPoint x="610" y="650" />
              <mxPoint x="610" y="420" />
            </Array>
          </mxGeometry>
        </mxCell>
        <mxCell id="sZH2aLDt-uR4K2a4QQyU-29" value="Não" style="edgeLabel;html=1;align=center;verticalAlign=middle;resizable=0;points=[];" vertex="1" connectable="0" parent="sZH2aLDt-uR4K2a4QQyU-28">
          <mxGeometry x="-0.8079" y="4" relative="1" as="geometry">
            <mxPoint as="offset" />
          </mxGeometry>
        </mxCell>
        <mxCell id="sZH2aLDt-uR4K2a4QQyU-20" value="Cont == 10" style="rhombus;whiteSpace=wrap;html=1;fillColor=#fff2cc;strokeColor=#d6b656;" vertex="1" parent="1">
          <mxGeometry x="331" y="610" width="166" height="80" as="geometry" />
        </mxCell>
        <mxCell id="sZH2aLDt-uR4K2a4QQyU-21" value="Fim" style="ellipse;whiteSpace=wrap;html=1;fillColor=#d5e8d4;strokeColor=#82b366;" vertex="1" parent="1">
          <mxGeometry x="354" y="740" width="120" height="80" as="geometry" />
        </mxCell>
      </root>
    </mxGraphModel>
  </diagram>
</mxfile>
